<svg width="914" height="400" fill="none" xmlns="http://www.w3.org/2000/svg"><path fill="#fff" d="M0 0h914v400H0z"/><path d="M380.294 199.424c-.616-.448-1.372-.896-2.52-.896-1.036 0-1.652.364-1.652 1.064 0 2.072 6.888 1.12 6.888 5.74 0 2.632-2.24 3.976-5.124 3.976-2.408 0-4.256-1.092-4.956-1.96-.224-.28-.336-.532-.336-.868 0-.728.616-1.344 1.344-1.344.28 0 .56.084.868.336.756.616 1.68 1.148 3.08 1.148 1.26 0 2.072-.336 2.072-1.12 0-2.268-6.86-1.092-6.86-5.852 0-2.52 2.1-3.752 4.676-3.752 1.988 0 3.752.756 4.536 1.736.168.224.28.42.28.84 0 .728-.616 1.344-1.344 1.344-.392 0-.644-.168-.952-.392Zm5.45-3.136h2.184c.84 0 1.512.448 1.512 1.288.42-.7 1.736-1.68 3.304-1.68 3.668 0 5.684 2.156 5.684 6.72s-2.044 6.748-5.684 6.748c-1.4 0-2.632-.448-3.304-1.204v3.948h1.12c.7 0 1.26.56 1.26 1.26s-.56 1.26-1.26 1.26h-4.816c-.7 0-1.26-.56-1.26-1.26s.56-1.26 1.26-1.26h.672v-13.3h-.672c-.7 0-1.26-.56-1.26-1.26s.56-1.26 1.26-1.26Zm6.608 10.5c1.96 0 2.996-1.4 2.996-4.144 0-2.772-1.036-4.172-2.996-4.172s-2.996 1.4-2.996 4.172c0 2.744 1.036 4.144 2.996 4.144Zm14.328 2.576c-3.892 0-6.3-2.1-6.3-6.776 0-4.284 2.24-6.692 6.048-6.692 4.732 0 5.6 3.64 5.6 5.572 0 1.036 0 2.24-1.708 2.24h-6.916c0 2.016 1.428 2.94 3.276 2.94 1.232 0 2.1-.42 2.772-.868.308-.196.532-.308.896-.308.728 0 1.316.588 1.316 1.316 0 .448-.224.812-.476 1.036-.476.448-1.96 1.54-4.508 1.54Zm2.352-8.176c0-1.372-.784-2.716-2.604-2.716-1.624 0-2.8.924-2.94 2.716h5.544Zm10.96 8.176c-3.78 0-6.076-2.184-6.076-6.748s2.296-6.72 6.076-6.72c2.576 0 4.088 1.288 4.564 1.932.224.308.308.532.308.868 0 .756-.588 1.344-1.344 1.344-.448 0-.784-.224-1.036-.476-.364-.364-1.092-1.092-2.492-1.092-1.96 0-3.024 1.512-3.024 4.144 0 2.688 1.064 4.172 3.024 4.172 1.288 0 2.128-.644 2.772-1.12.308-.224.588-.28.84-.28.756 0 1.344.588 1.344 1.344 0 .364-.14.728-.476 1.036-.644.588-2.184 1.596-4.48 1.596Zm13.265-8.708c.7 0 1.288.588 1.288 1.288 0 .7-.588 1.288-1.288 1.288h-5.6c-.7 0-1.288-.588-1.288-1.288 0-.7.588-1.288 1.288-1.288h5.6Zm4.66-9.072h-.7c-.7 0-1.26-.56-1.26-1.26s.56-1.26 1.26-1.26h2.296c.812 0 1.428.7 1.428 1.512v6.44c.56-.56 1.736-1.12 3.08-1.12 3.528 0 5.684 2.184 5.684 6.748 0 4.396-2.044 6.72-5.74 6.72-1.12 0-2.464-.532-3.052-1.316-.224.728-.784 1.176-1.484 1.176-.896 0-1.512-.616-1.512-1.456v-16.184Zm3.024 8.316v4.396c0 1.54 1.12 2.492 2.828 2.492 1.904 0 2.94-1.4 2.94-4.144 0-2.772-1.092-4.172-2.996-4.172-1.68 0-2.772 1.428-2.772 1.428Zm23.084 6.58h.7c.7 0 1.26.56 1.26 1.26s-.56 1.26-1.26 1.26h-2.212c-.84 0-1.456-.56-1.512-1.344-.42.812-1.456 1.68-3.024 1.68-4.06 0-5.012-2.492-5.012-5.236v-5.292h-.644c-.7 0-1.26-.532-1.26-1.26 0-.7.56-1.26 1.26-1.26h2.24c.812 0 1.428.7 1.428 1.512v6.3c0 1.288.448 2.52 2.52 2.52 2.044 0 2.492-1.232 2.492-2.52v-5.292h-.644c-.7 0-1.26-.532-1.26-1.26 0-.7.56-1.26 1.26-1.26h2.24c.812 0 1.428.7 1.428 1.512v8.68Zm9.027 2.52h-4.368c-.7 0-1.26-.532-1.26-1.26 0-.7.56-1.26 1.26-1.26h.672v-7.672h-.672c-.7 0-1.26-.532-1.26-1.26 0-.7.56-1.26 1.26-1.26h2.268c.896 0 1.428.644 1.428 1.512v8.68h.672c.7 0 1.26.56 1.26 1.26s-.56 1.26-1.26 1.26Zm-.448-16.212c0 1.092-.644 1.764-1.82 1.764-1.148 0-1.792-.672-1.792-1.764 0-1.288.644-1.848 1.792-1.848 1.176 0 1.82.56 1.82 1.848Zm8.536 13.636c.728 0 1.316.616 1.316 1.4 0 .784-.588 1.4-1.316 1.4h-.868c-2.184 0-3.556-1.232-3.556-3.584v-14.056h-.672c-.7 0-1.26-.532-1.26-1.26 0-.7.56-1.26 1.26-1.26h2.268c.812 0 1.428.7 1.428 1.512v15.344c0 .308.224.504.476.504h.924Zm10.457-14.84c-.7 0-1.26-.56-1.26-1.26s.56-1.26 1.26-1.26h2.212c.84 0 1.512.672 1.512 1.512v15.904h.7c.7 0 1.26.56 1.26 1.26s-.56 1.26-1.26 1.26h-2.212c-.672 0-1.232-.42-1.4-.952-.868.896-1.932 1.316-3.22 1.316-3.444 0-5.656-2.156-5.656-6.72s2.156-6.748 5.684-6.748c1.344 0 2.52.56 3.08 1.12v-5.432h-.7Zm.7 8.316s-1.092-1.428-2.772-1.428c-1.904 0-2.996 1.4-2.996 4.172 0 2.744 1.036 4.144 2.94 4.144 1.708 0 2.828-.952 2.828-2.492V199.9Zm14.585-8.316c-.7 0-1.26-.56-1.26-1.26s.56-1.26 1.26-1.26h2.212c.84 0 1.512.672 1.512 1.512v15.904h.7c.7 0 1.26.56 1.26 1.26s-.56 1.26-1.26 1.26h-2.212c-.672 0-1.232-.42-1.4-.952-.868.896-1.932 1.316-3.22 1.316-3.444 0-5.656-2.156-5.656-6.72s2.156-6.748 5.684-6.748c1.344 0 2.52.56 3.08 1.12v-5.432h-.7Zm.7 8.316s-1.092-1.428-2.772-1.428c-1.904 0-2.996 1.4-2.996 4.172 0 2.744 1.036 4.144 2.94 4.144 1.708 0 2.828-.952 2.828-2.492V199.9Zm12.821 9.464c-3.892 0-6.3-2.1-6.3-6.776 0-4.284 2.24-6.692 6.048-6.692 4.732 0 5.6 3.64 5.6 5.572 0 1.036 0 2.24-1.708 2.24h-6.916c0 2.016 1.428 2.94 3.276 2.94 1.232 0 2.1-.42 2.772-.868.308-.196.532-.308.896-.308.728 0 1.316.588 1.316 1.316 0 .448-.224.812-.476 1.036-.476.448-1.96 1.54-4.508 1.54Zm2.352-8.176c0-1.372-.784-2.716-2.604-2.716-1.624 0-2.8.924-2.94 2.716h5.544Zm5.751-4.9h2.184c.84 0 1.512.448 1.512 1.288.42-.7 1.736-1.68 3.304-1.68 3.668 0 5.684 2.156 5.684 6.72s-2.044 6.748-5.684 6.748c-1.4 0-2.632-.448-3.304-1.204v3.948h1.12c.7 0 1.26.56 1.26 1.26s-.56 1.26-1.26 1.26h-4.816c-.7 0-1.26-.56-1.26-1.26s.56-1.26 1.26-1.26h.672v-13.3h-.672c-.7 0-1.26-.56-1.26-1.26s.56-1.26 1.26-1.26Zm6.608 10.5c1.96 0 2.996-1.4 2.996-4.144 0-2.772-1.036-4.172-2.996-4.172s-2.996 1.4-2.996 4.172c0 2.744 1.036 4.144 2.996 4.144Z" fill="#333"/></svg>